<?xml version="1.0" encoding="UTF-8"?>
<svg id="_Слой_1" data-name="Слой 1" xmlns="http://www.w3.org/2000/svg" viewBox="0 0 501 501">
  <defs>
    <style>
      .cls-1 {
        fill: #da91b4;
      }

      .cls-2 {
        fill: #ead2df;
      }

      .cls-3 {
        fill: #e9c2da;
        stroke: #222220;
        stroke-miterlimit: 10;
      }

      .cls-4 {
        letter-spacing: -.02em;
      }

      .cls-5 {
        fill: #e5b5cd;
      }

      .cls-6 {
        letter-spacing: .04em;
      }

      .cls-7 {
        fill: #fafbf7;
        font-family: CatPaw, 'Cat Paw';
        font-size: 67.79px;
      }

      .cls-8 {
        fill: #db92b5;
      }

      .cls-9 {
        letter-spacing: .04em;
      }
    </style>
  </defs>
  <rect class="cls-3" x=".5" y=".5" width="500" height="500"/>
  <text class="cls-7" transform="translate(29.71 72.37) scale(.96 1)"><tspan class="cls-9" x="0" y="0">Cute </tspan><tspan class="cls-4" x="166.96" y="0">P</tspan><tspan class="cls-6" x="218.21" y="0">aw VPN</tspan><tspan class="cls-9" x="0" y="98.86">Cute </tspan><tspan class="cls-4" x="166.96" y="98.86">P</tspan><tspan class="cls-6" x="218.21" y="98.86">aw VPN</tspan><tspan class="cls-9" x="0" y="197.72">Cute </tspan><tspan class="cls-4" x="166.96" y="197.72">P</tspan><tspan class="cls-6" x="218.21" y="197.72">aw VPN</tspan><tspan class="cls-9" x="0" y="296.57">Cute </tspan><tspan class="cls-4" x="166.96" y="296.57">P</tspan><tspan class="cls-6" x="218.21" y="296.57">aw VPN</tspan><tspan class="cls-9" x="0" y="395.43">Cute </tspan><tspan class="cls-4" x="166.96" y="395.43">P</tspan><tspan class="cls-6" x="218.21" y="395.43">aw VPN</tspan></text>
  <path class="cls-8" d="M109.57,132.61c46.59-.21,94.15-13.43,131.1-42.19,4.52-3.52,8.48-7.61,13.01-11.09,31.97,29.96,76.41,48.42,120.13,52.18,3.18.27,23.04.62,23.73,1.62l1.36,15.71c4.35,110.57-45.56,216.55-143.88,270.42-1.45.8-2.56.06-3.85-.51-6.58-2.88-17.11-10.42-23.29-14.72-40.66-28.29-72.95-67.1-93.05-112.43-21.92-49.43-30.12-105.16-25.25-158.99Z"/>
  <path class="cls-2" d="M118.94,142.53c49.1-1.52,96.82-18.28,134.73-49.38,33.04,27.23,74.59,44.15,117.38,48.28,4.62.45,10.67-.05,14.84.59.69.11,1.9.46,2.25,1.06.24.41.79,6.28.85,7.42,4.97,95.63-36.78,190.45-115.57,245.28-4.05,2.82-14.48,10.41-18.51,11.8-.9.31-1.61.73-2.57.13-66.59-38.78-111.14-102.8-127.16-178.05-6.05-28.4-8.59-58.15-6.23-87.12Z"/>
  <g>
    <path class="cls-1" d="M208.74,326.87c-17-6.69-25.48-22.76-18.33-40.16,5.11-12.43,15.35-17.55,25.65-24.66,8.03-5.55,7.4-9.02,12.21-16.33,9.45-14.37,32.7-12.86,45.55-4.09,4.69,3.2,8.18,10.98,11.76,15.63,10.81,14.04,32.51,15.93,33.87,37.34,1.55,24.52-21.2,38.88-43.63,35.07-6.51-1.1-12.77-4.12-19.43-4.46-8.01-.42-14.89,3.42-22.54,5-9.25,1.92-14.92.73-23.61-2.59l-1.49-.75Z"/>
    <path class="cls-1" d="M243.26,171.54c17.28,14.92,13.75,69.02-15.59,60.22-.29-.09-.24-.56-.57-.69-23.54-9.12-33.46-54.64-4.75-63.96,7.97-2.59,14.66-.96,20.9,4.43Z"/>
    <path class="cls-1" d="M197.42,211.05c13.55,10.02,26.33,40.6,8.49,52.36-31.87,21.01-58.73-39.58-34.03-54.92,7.12-4.43,19.04-2.25,25.54,2.56Z"/>
    <path class="cls-5" d="M207.64,327.61c-.44-.17-1.29.18-1.49-.75.51.2,1.12.12,1.49.75Z"/>
    <path class="cls-1" d="M310.55,211.05c-13.55,10.02-26.33,40.6-8.49,52.36,31.87,21.01,58.73-39.58,34.03-54.92-7.12-4.43-19.04-2.25-25.54,2.56Z"/>
    <path class="cls-1" d="M267.25,173.79c-17.28,14.92-13.75,69.02,15.59,60.22.29-.09.24-.56.57-.69,23.54-9.12,33.46-54.64,4.75-63.96-7.97-2.59-14.66-.96-20.9,4.43Z"/>
  </g>
</svg>